<?xml version="1.0" encoding="UTF-8" standalone="no"?>
<!-- Created with Inkscape (http://www.inkscape.org/) -->

<svg
   xmlns:dc="http://purl.org/dc/elements/1.1/"
   xmlns:cc="http://creativecommons.org/ns#"
   xmlns:rdf="http://www.w3.org/1999/02/22-rdf-syntax-ns#"
   xmlns:svg="http://www.w3.org/2000/svg"
   xmlns="http://www.w3.org/2000/svg"
   xmlns:sodipodi="http://sodipodi.sourceforge.net/DTD/sodipodi-0.dtd"
   xmlns:inkscape="http://www.inkscape.org/namespaces/inkscape"
   id="svg2830"
   sodipodi:version="0.32"
   inkscape:version="0.46+devel"
   width="324.43896"
   height="94.562256"
   version="1.0"
   sodipodi:docname="SQLite_Logo_4.png"
   inkscape:output_extension="org.inkscape.output.svg.inkscape">
  <metadata
     id="metadata2836">
    <rdf:RDF>
      <cc:Work
         rdf:about="">
        <dc:format>image/svg+xml</dc:format>
        <dc:type
           rdf:resource="http://purl.org/dc/dcmitype/StillImage" />
        <dc:title></dc:title>
      </cc:Work>
    </rdf:RDF>
  </metadata>
  <defs
     id="defs2834">
    <inkscape:perspective
       sodipodi:type="inkscape:persp3d"
       inkscape:vp_x="0 : 0.5 : 1"
       inkscape:vp_y="0 : 1000 : 0"
       inkscape:vp_z="1 : 0.5 : 1"
       inkscape:persp3d-origin="0.5 : 0.33333333 : 1"
       id="perspective2838" />
  </defs>
  <sodipodi:namedview
     pagecolor="#ffffff"
     bordercolor="#666666"
     borderopacity="1"
     objecttolerance="10"
     gridtolerance="10"
     guidetolerance="10"
     inkscape:pageopacity="0"
     inkscape:pageshadow="2"
     inkscape:window-width="1440"
     inkscape:window-height="828"
     id="namedview2832"
     showgrid="false"
     inkscape:zoom="1.6605505"
     inkscape:cx="185.086"
     inkscape:cy="73.125553"
     inkscape:window-x="-4"
     inkscape:window-y="-3"
     inkscape:current-layer="svg2830">
    <inkscape:grid
       type="xygrid"
       id="grid2868"
       empspacing="5"
       visible="true"
       enabled="true"
       snapvisiblegridlinesonly="true" />
  </sodipodi:namedview>
  <path
     style="fill:#7ea397"
     d="m 182.12097,93.737227 c -0.2419,-0.4125 -0.43209,-2.6575 -0.42265,-4.98888 0.0162,-4.00683 0.48872,-4.69339 8.63079,-12.54075 16.91316,-16.30097 36.1876,-30.04041 56.75309,-40.45543 11.62075,-5.88512 24.97088,-10.98794 26.01508,-9.94374 0.28972,0.28972 -7.05152,4.30842 -16.31388,8.93043 -9.26236,4.62201 -20.66565,10.7931 -25.34065,13.71353 -21.0704,13.16246 -47,35.0309 -47,39.63873 0,1.31786 0.51245,2.39611 1.13878,2.39611 0.62634,0 7.71384,-6.65286 15.75,-14.78414 8.03617,-8.13128 18.30023,-17.38406 22.80902,-20.56173 9.91242,-6.98599 26.79246,-15.89125 34.26001,-18.07426 7.38833,-2.15985 5.28429,-0.50232 -4.45781,3.51179 -14.6951,6.05493 -35.44896,21.66776 -50.1393,37.71908 -11.62418,12.7011 -19.85238,18.56008 -21.68248,15.43926 z m 40.84893,-22.20607 c -0.76969,-1.24539 2.08576,-3.05905 12.47285,-7.92221 10.36331,-4.85204 21.91261,-8.15922 27.9799,-8.01215 l 4.5201,0.10956 -4.42481,0.86814 c -7.50435,1.47232 -14.09556,3.96693 -26.57214,10.05689 -12.84989,6.27217 -13.07824,6.35222 -13.9759,4.89977 z m -6.52715,-0.98722 c 0,-1.359 4.15919,-4.07636 5.22811,-3.41573 1.15143,0.71162 -2.09774,4.35902 -3.8831,4.35902 -0.73975,0 -1.34501,-0.42448 -1.34501,-0.94329 z M 79.566993,65.569477 c -3.865665,-2.55917 -4.902715,-2.78945 -10.528363,-2.33788 -12.277956,0.98556 -23.615529,-5.00173 -25.170898,-13.29256 -2.038006,-10.8635 12.782491,-26.45181 25.148918,-26.45181 5.218243,0 7.218991,1.96438 5.606131,5.50422 -1.021768,2.24254 -0.651663,2.88181 4.469678,7.72039 3.07103,2.90146 6.005134,6.3802 6.520232,7.73053 1.356151,3.55514 0.02666,9.65777 -2.848367,13.07454 l -2.490904,2.96027 2.198732,3.55763 c 1.209303,1.95669 2.015166,3.74119 1.790807,3.96555 -0.22436,0.22436 -2.337544,-0.86954 -4.695966,-2.43088 z m -9.602331,-10.83225 c -1.51034,-3.81914 -1.742336,-8.27948 -0.507999,-9.76676 1.140083,-1.37372 1.464472,-1.36028 3.109912,0.12882 1.010383,0.91439 2.124615,3.19532 2.476072,5.06875 0.658478,3.50999 2.000348,3.90004 3.769308,1.09566 1.162272,-1.84259 -1.227225,-8.21055 -5.050593,-13.45975 -1.275236,-1.7508 -2.318612,-3.90242 -2.318612,-4.78138 0,-2.53236 -2.710814,-2.91749 -7.54379,-1.07176 -4.931501,1.88335 -13.144854,9.4477 -14.012687,12.90542 -1.58927,6.33216 5.362201,11.56783 15.413466,11.60904 4.703283,0.0193 5.272537,-0.19159 4.664923,-1.72804 z m 22.908754,8.43834 -2.930666,-2.52653 0.07742,-14.8309 c 0.04258,-8.157 0.386933,-16.06155 0.76523,-17.56568 1.292395,-5.13862 9.41019,-4.81049 8.94294,0.36149 -0.11792,1.3053 -0.85679,7.54828 -1.64192,13.87328 -0.78514,6.325 -1.19849,11.87975 -0.91856,12.34388 0.27993,0.46413 2.36879,0.55172 4.64192,0.19464 10.63748,-1.67099 16.42256,-1.69868 19.52672,-0.0935 3.44896,1.78353 3.51495,1.92277 2.13403,4.50304 -1.32898,2.48322 -3.30275,3.15896 -12.02778,4.11783 -4.125,0.45333 -9.3312,1.12229 -11.56933,1.48659 -3.45829,0.5629 -4.509399,0.28298 -7.000002,-1.86418 z m 81.317304,0.92412 c -4.65915,-1.71138 -10.74797,-6.26662 -10.74797,-8.0409 0,-0.72967 0.62006,-1.84128 1.37792,-2.47024 0.75786,-0.62897 1.57894,-3.56762 1.82464,-6.53033 0.24569,-2.96272 1.211,-6.55321 2.14513,-7.97887 1.43354,-2.18787 2.43988,-2.59212 6.45286,-2.59212 2.61494,0 5.71893,0.67556 6.89776,1.50124 5.85782,4.10298 2.58079,17.08082 -4.99849,19.79525 -2.67301,0.95731 0.65544,2.02237 6.75967,2.163 7.48714,0.1725 8.63576,0.78826 5.37727,2.88268 -3.51225,2.25754 -10.74364,2.86633 -15.08879,1.27029 z m 2.66675,-14.12265 c 1.2562,-1.9172 1.39317,-2.98024 0.57983,-4.5 -0.58571,-1.09439 -1.48325,-1.98981 -1.99455,-1.98981 -1.37078,0 -3,3.49429 -3,6.43426 0,3.30529 2.26672,3.33382 4.41472,0.0555 z M 8.8574763,62.099787 c -3.874594,-1.80417 -5.605,-3.36502 -7.268295,-6.55613 -2.645848,-5.07617 -1.85685702,-7.11503 1.395367,-3.60583 2.169814,2.34127 3.045995,2.5494 10.7323137,2.5494 8.511542,0 16.597297,-1.9352 18.707,-4.47724 3.61427,-4.35493 -4.501281,-11.3668 -17.373392,-15.01068 -8.6941997,-2.46118 -9.4729897,-4.6683 -2.922291,-8.28187 5.351086,-2.95183 16.353541,-3.60443 18.849275,-1.11803 1.489321,1.48376 1.128764,1.66756 -4.526122,2.30734 -3.379395,0.38234 -7.126306,1.07593 -8.326468,1.54132 -1.94759,0.75523 -1.590998,1.10994 3.317886,3.30036 3.025,1.3498 7.075,2.96927 9,3.59883 7.707857,2.52079 11.3752,8.2235 10.244176,15.92966 -0.65129,4.43752 -3.97111,7.5903 -10.606662,10.07298 -7.59768,2.84265 -14.762147,2.75822 -21.2227877,-0.25011 z m 143.7672437,0.35703 c -3.50523,-2.13707 -6.51253,-7.69221 -7.72294,-14.26598 -0.6679,-3.62737 -0.78189,-3.7214 -2.56027,-2.11199 -4.0674,3.68095 -6.85938,-3.631 -2.89876,-7.59162 1.1,-1.1 2.63925,-2 3.42054,-2 1.44611,0 1.99327,-1.78002 3.1593,-10.27781 0.43757,-3.18893 1.28155,-5.11282 2.53787,-5.78519 2.52462,-1.35113 6.16408,0.55828 5.47784,2.87391 -0.27532,0.929 -0.78877,3.03909 -1.14101,4.68909 -0.35224,1.65 -0.84134,3.74785 -1.08691,4.66189 -0.47187,1.75641 0.57278,2.10857 9.90172,3.33795 5.56309,0.73311 5.46298,1.96754 -0.23343,2.87843 -6.5262,1.04358 -11.03592,3.63397 -11.03592,6.33906 0,4.23873 2.61627,8.72731 7.34587,12.60286 2.55977,2.09754 4.65413,4.45858 4.65413,5.24676 0,2.14994 -5.90077,1.79092 -9.81803,-0.59736 z m -23.68568,-3.17092 c -2.28275,-5.57605 -3.22057,-18.22104 -1.5047,-20.28853 3.34957,-4.03599 7.10273,1.00763 7.76074,10.42912 0.86813,12.42997 -2.82253,18.24638 -6.25604,9.85941 z m 74.9588,-1.87134 c -0.28111,-0.45484 0.37191,-1.29956 1.45116,-1.87715 2.70305,-1.44663 6.35634,-1.33794 5.85232,0.17412 -0.48817,1.46451 -6.57386,2.88358 -7.30348,1.70303 z m 46.68478,-3.75696 c 3.54719,-2.87857 11.95751,-7.03984 15.76874,-7.80209 1.70026,-0.34005 3.09139,-1.06828 3.09139,-1.61828 0,-0.57778 -1.26667,-0.74666 -3,-0.4 -2.27754,0.45551 -3,0.23505 -3,-0.91544 0,-2.3932 16.34409,-1.63489 16.80538,0.77971 0.22795,1.19316 -0.52865,1.89678 -2.48894,2.31464 -1.54904,0.3302 -8.21644,2.44131 -14.81644,4.69134 -6.6,2.25004 -12.675,4.3163 -13.5,4.59169 -0.825,0.27539 -0.31206,-0.46332 1.13987,-1.64157 z m -51.90963,-0.72165 c -1.21812,-0.85321 -2.66831,-2.39875 -3.22265,-3.43453 -1.42353,-2.65989 0.39051,-7.01419 2.92217,-7.01419 3.37081,0 14.49162,-4.4678 19.44959,-7.81389 8.61462,-5.81394 10.45008,-3.58319 5.08411,6.179 -2.00585,3.64919 -4.02915,6.63489 -4.49621,6.63489 -1.92062,0 -1.79992,-1.99155 0.38187,-6.30115 l 2.30794,-4.55876 -4.90782,2.48698 c -2.6993,1.36784 -7.75039,3.36496 -11.22465,4.43805 -6.92387,2.13857 -8.72937,4.23088 -5.23735,6.06933 2.58367,1.36024 3.78391,2.94142 3.08776,4.06781 -0.71746,1.16088 -1.65485,0.99045 -4.14476,-0.75354 z m 76.26046,-14.43367 c 0.3348,-0.54172 3.43109,-2.99894 6.88064,-5.46049 5.58102,-3.98253 9.87351,-6.19303 29.16377,-15.018449 6.36519,-2.912112 11.46489,-7.167163 11.46489,-9.5659848 0,-1.0186487 0.45,-2.1302047 1,-2.4701227 1.70972,-1.056668 1.0932,3.8349017 -0.8941,7.0938865 -1.46832,2.407906 -4.1351,4.042675 -12.0276,7.37307 -5.57754,2.35355 -15.72791,7.59881 -22.5564,11.65612 -12.41483,7.37657 -14.17259,8.23878 -13.0312,6.39197 z m -41.14529,-1.55731 c -0.32762,-0.85375 0.78236,-3.75286 2.48637,-6.49403 l 3.0782,-4.95178 -5.05443,2.56127 c -2.77993,1.4087 -5.2691,2.34658 -5.53149,2.08419 -0.90202,-0.90202 10.55208,-8.80244 15.36176,-10.59571 7.67516,-2.861648 10.17509,-0.43093 3.8024,3.69712 -1.91787,1.24235 -5.3998,5.17048 -7.73762,8.7292 -4.4425,6.7625 -5.42478,7.52465 -6.40519,4.96974 z m -107.95687,-6.8876 c -0.99567,-2.59467 0.39988,-4.73919 2.85699,-4.39027 1.65273,0.23469 2.25447,0.9874 2.25447,2.82013 0,1.83273 -0.60174,2.58545 -2.25447,2.82014 -1.35228,0.19202 -2.49559,-0.3082 -2.85699,-1.25 z m 137.26668,-4.24825 c -1.72504,-1.72504 -0.0204,-4.23127 5.92218,-8.7068 3.56736,-2.686703 6.3212,-5.049817 6.11965,-5.251366 -0.5382,-0.538203 -15.29405,3.35023 -17.79723,4.689893 -1.54868,0.828827 -1.94926,0.835407 -1.44765,0.02378 2.20098,-3.561256 22.60372,-10.3969485 25.56661,-8.5657828 2.62693,1.623534 0.6299,4.5928608 -6.26878,9.3208548 -3.9875,2.732821 -8.19265,5.908341 -9.34478,7.056711 -1.15213,1.14836 -2.38963,1.79308 -2.75,1.43271 z m 15.34478,-4.14676 c 0,-0.9043 19.9523,-8.556163 20.60593,-7.902534 0.41453,0.414529 -18.5053,8.732074 -19.85593,8.729074 -0.4125,-9.2e-4 -0.75,-0.37286 -0.75,-0.82654 z m 4,-17.1407115 c 0,-0.54068 1.4625,-1.780376 3.25,-2.754879 4.55954,-2.48575202 17.64207,-2.31643302 23.60526,0.305509 l 4.35526,1.914955 -9.85526,0 c -5.42039,0 -12.44276,0.341431 -15.60526,0.758735 -3.61514,0.477032 -5.75,0.393746 -5.75,-0.22432 z"
     id="path2866" />
  <path
     style="fill:#000000"
     d=""
     id="path2842" />
</svg>
